<svg xmlns="http://www.w3.org/2000/svg" height="40px" viewBox="0 -960 960 960" width="40px" fill="#FFFFFF"><path d="M266.67-80q-27 0-46.84-19.83Q200-119.67 200-146.67v-422q0-27 19.83-46.83 19.84-19.83 46.84-19.83h426.66q27 0 46.84 19.83Q760-595.67 760-568.67v422q0 27-19.83 46.84Q720.33-80 693.33-80H266.67Zm0-66.67h426.66v-422H266.67v422Zm180-48h66.66v-40.66h-66.66v40.66Zm0-81.33h66.66q0-20.33 10.14-37.41 10.13-17.07 21.86-33.59 11.34-17 20.67-35.17 9.33-18.16 9.33-38.26 0-39.24-28-66.07-28-26.83-67.33-26.83t-67 26.95q-27.67 26.94-27.67 65.71 0 20.05 9.17 38.2 9.17 18.14 20.17 35.14 11 16.66 21.5 33.83 10.5 17.17 10.5 37.5ZM241.33-704q0-22.33 15.75-38.17Q272.83-758 295.33-758h370q22.23 0 37.78 15.75 15.56 15.75 15.56 38.25H241.33Zm41.34-122q0-22.33 15.55-38.17Q313.78-880 336-880h288q22.5 0 38.25 15.75T678-826H282.67ZM480-358Z"/></svg>