<svg xmlns="http://www.w3.org/2000/svg" height="40px" viewBox="0 -960 960 960" width="40px" fill="#FFFFFF"><path d="M362.33-186.67h235.34L574.33-280H385.67l-23.34 93.33Zm-2.33-160h240q88.33 0 150.83-62.5 62.5-62.5 62.5-150.83 0-88.33-62.5-150.83-62.5-62.5-150.83-62.5H360q-88.33 0-150.83 62.5-62.5 62.5-62.5 150.83 0 88.33 62.5 150.83 62.5 62.5 150.83 62.5Zm53.83-147.16Q386.67-521 386.67-560t27.16-66.17Q441-653.33 480-653.33t66.17 27.16Q573.33-599 573.33-560t-27.16 66.17Q519-466.67 480-466.67t-66.17-27.16ZM258-608.67q13.67 0 23.5-9.83t9.83-23.5q0-14.33-9.83-23.83-9.83-9.5-23.5-9.5-14.33 0-23.83 9.5-9.5 9.5-9.5 23.83 0 13.67 9.5 23.5t23.83 9.83ZM160-120v-66.67h134.33l24.34-96q-101.67-15-170.17-93.16Q80-454 80-560q0-117 81.5-198.5T360-840h240q117 0 198.5 81.5T880-560q0 106-68.5 184.17-68.5 78.16-170.17 93.16l24.34 96H800V-120H160Zm433-327q47-47 47-113t-47-113q-47-47-113-47t-113 47q-47 47-47 113t47 113q47 47 113 47t113-47ZM480-560ZM362.33-186.67h235.34-235.34Z"/></svg>